<svg xmlns="http://www.w3.org/2000/svg" width="1200" height="1200" viewBox="0 0 1200 1200">
  <rect width="1200" height="1200" fill="#EFEDE8"/>
  <g transform="translate(0 285)">
  <rect width="1200" height="630" fill="#EFEDE8"/>
  <g opacity="0.17"><path d="M 1111.58 300.00 L 1131.89 305.73 L 1131.66 310.18 L 1110.85 313.75 A 131.57 131.57 0 0 1 1108.70 327.36 L 1127.38 337.18 L 1126.23 341.49 L 1105.14 340.66 A 131.57 131.57 0 0 1 1100.20 353.52 L 1116.43 367.01 L 1114.41 370.98 L 1093.95 365.79 A 131.57 131.57 0 0 1 1086.45 377.34 L 1099.52 393.91 L 1096.71 397.38 L 1077.78 388.04 A 131.57 131.57 0 0 1 1068.04 397.78 L 1077.38 416.71 L 1073.91 419.52 L 1057.34 406.45 A 131.57 131.57 0 0 1 1045.79 413.95 L 1050.98 434.41 L 1047.01 436.43 L 1033.52 420.20 A 131.57 131.57 0 0 1 1020.66 425.14 L 1021.49 446.23 L 1017.18 447.38 L 1007.36 428.70 A 131.57 131.57 0 0 1 993.75 430.85 L 990.18 451.66 L 985.73 451.89 L 980.00 431.57 A 131.57 131.57 0 0 1 966.25 430.85 L 958.43 450.46 L 954.02 449.76 L 952.64 428.70 A 131.57 131.57 0 0 1 939.34 425.14 L 927.61 442.69 L 923.45 441.09 L 926.48 420.20 A 131.57 131.57 0 0 1 914.21 413.95 L 899.09 428.68 L 895.35 426.25 L 902.66 406.45 A 131.57 131.57 0 0 1 891.96 397.78 L 874.11 409.04 L 870.96 405.89 L 882.22 388.04 A 131.57 131.57 0 0 1 873.55 377.34 L 853.75 384.65 L 851.32 380.91 L 866.05 365.79 A 131.57 131.57 0 0 1 859.80 353.52 L 838.91 356.55 L 837.31 352.39 L 854.86 340.66 A 131.57 131.57 0 0 1 851.30 327.36 L 830.24 325.98 L 829.54 321.57 L 849.15 313.75 A 131.57 131.57 0 0 1 848.42 300.00 L 828.11 294.27 L 828.34 289.82 L 849.15 286.25 A 131.57 131.57 0 0 1 851.30 272.64 L 832.62 262.82 L 833.77 258.51 L 854.86 259.34 A 131.57 131.57 0 0 1 859.80 246.48 L 843.57 232.99 L 845.59 229.02 L 866.05 234.21 A 131.57 131.57 0 0 1 873.55 222.66 L 860.48 206.09 L 863.29 202.62 L 882.22 211.96 A 131.57 131.57 0 0 1 891.96 202.22 L 882.62 183.29 L 886.09 180.48 L 902.66 193.55 A 131.57 131.57 0 0 1 914.21 186.05 L 909.02 165.59 L 912.99 163.57 L 926.48 179.80 A 131.57 131.57 0 0 1 939.34 174.86 L 938.51 153.77 L 942.82 152.62 L 952.64 171.30 A 131.57 131.57 0 0 1 966.25 169.15 L 969.82 148.34 L 974.27 148.11 L 980.00 168.43 A 131.57 131.57 0 0 1 993.75 169.15 L 1001.57 149.54 L 1005.98 150.24 L 1007.36 171.30 A 131.57 131.57 0 0 1 1020.66 174.86 L 1032.39 157.31 L 1036.55 158.91 L 1033.52 179.80 A 131.57 131.57 0 0 1 1045.79 186.05 L 1060.91 171.32 L 1064.65 173.75 L 1057.34 193.55 A 131.57 131.57 0 0 1 1068.04 202.22 L 1085.89 190.96 L 1089.04 194.11 L 1077.78 211.96 A 131.57 131.57 0 0 1 1086.45 222.66 L 1106.25 215.35 L 1108.68 219.09 L 1093.95 234.21 A 131.57 131.57 0 0 1 1100.20 246.48 L 1121.09 243.45 L 1122.69 247.61 L 1105.14 259.34 A 131.57 131.57 0 0 1 1108.70 272.64 L 1129.76 274.02 L 1130.46 278.43 L 1110.85 286.25 A 131.57 131.57 0 0 1 1111.58 300.00 Z" fill="none" stroke="#17191A" stroke-width="2.4"/><circle cx="980" cy="300" r="105.5" fill="none" stroke="#17191A" stroke-width="1.6"/><circle cx="980" cy="300" r="27.1" fill="none" stroke="#17191A" stroke-width="2.4"/><line x1="1009.9" y1="300.0" x2="1082.6" y2="300.0" stroke="#17191A" stroke-width="1.8"/><circle cx="1038.0" cy="333.5" r="7.8" fill="none" stroke="#17191A" stroke-width="1.6"/><line x1="995.0" y1="325.9" x2="1031.3" y2="388.9" stroke="#17191A" stroke-width="1.8"/><circle cx="980.0" cy="367.0" r="7.8" fill="none" stroke="#17191A" stroke-width="1.6"/><line x1="965.0" y1="325.9" x2="928.7" y2="388.9" stroke="#17191A" stroke-width="1.8"/><circle cx="922.0" cy="333.5" r="7.8" fill="none" stroke="#17191A" stroke-width="1.6"/><line x1="950.1" y1="300.0" x2="877.4" y2="300.0" stroke="#17191A" stroke-width="1.8"/><circle cx="922.0" cy="266.5" r="7.8" fill="none" stroke="#17191A" stroke-width="1.6"/><line x1="965.0" y1="274.1" x2="928.7" y2="211.1" stroke="#17191A" stroke-width="1.8"/><circle cx="980.0" cy="233.0" r="7.8" fill="none" stroke="#17191A" stroke-width="1.6"/><line x1="995.0" y1="274.1" x2="1031.3" y2="211.1" stroke="#17191A" stroke-width="1.8"/><circle cx="1038.0" cy="266.5" r="7.8" fill="none" stroke="#17191A" stroke-width="1.6"/><path d="M 1240.57 458.92 L 1260.83 464.82 L 1260.47 469.41 L 1239.54 472.07 A 84.08 84.08 0 0 1 1236.46 484.90 L 1253.90 496.78 L 1252.14 501.02 L 1231.41 497.09 A 84.08 84.08 0 0 1 1224.51 508.34 L 1237.43 525.02 L 1234.45 528.52 L 1215.95 518.37 A 84.08 84.08 0 0 1 1205.91 526.94 L 1213.04 546.80 L 1209.13 549.20 L 1194.67 533.83 A 84.08 84.08 0 0 1 1182.48 538.88 L 1183.12 559.97 L 1178.65 561.04 L 1169.65 541.96 A 84.08 84.08 0 0 1 1156.50 542.99 L 1150.59 563.25 L 1146.01 562.89 L 1143.34 541.96 A 84.08 84.08 0 0 1 1130.52 538.88 L 1118.64 556.32 L 1114.39 554.56 L 1118.33 533.83 A 84.08 84.08 0 0 1 1107.08 526.94 L 1090.39 539.85 L 1086.90 536.87 L 1097.05 518.37 A 84.08 84.08 0 0 1 1088.48 508.34 L 1068.62 515.47 L 1066.22 511.55 L 1081.59 497.09 A 84.08 84.08 0 0 1 1076.54 484.90 L 1055.45 485.54 L 1054.37 481.07 L 1073.46 472.07 A 84.08 84.08 0 0 1 1072.42 458.92 L 1052.16 453.01 L 1052.52 448.43 L 1073.46 445.77 A 84.08 84.08 0 0 1 1076.54 432.94 L 1059.10 421.06 L 1060.85 416.81 L 1081.59 420.75 A 84.08 84.08 0 0 1 1088.48 409.50 L 1075.56 392.81 L 1078.55 389.32 L 1097.05 399.47 A 84.08 84.08 0 0 1 1107.08 390.90 L 1099.95 371.04 L 1103.87 368.64 L 1118.33 384.01 A 84.08 84.08 0 0 1 1130.52 378.96 L 1129.87 357.87 L 1134.34 356.79 L 1143.34 375.88 A 84.08 84.08 0 0 1 1156.50 374.84 L 1162.40 354.59 L 1166.98 354.95 L 1169.65 375.88 A 84.08 84.08 0 0 1 1182.48 378.96 L 1194.35 361.52 L 1198.60 363.28 L 1194.67 384.01 A 84.08 84.08 0 0 1 1205.91 390.90 L 1222.60 377.98 L 1226.10 380.97 L 1215.95 399.47 A 84.08 84.08 0 0 1 1224.51 409.50 L 1244.38 402.37 L 1246.78 406.29 L 1231.41 420.75 A 84.08 84.08 0 0 1 1236.46 432.94 L 1257.55 432.29 L 1258.62 436.76 L 1239.54 445.77 A 84.08 84.08 0 0 1 1240.57 458.92 Z" fill="none" stroke="#17191A" stroke-width="2.4"/><circle cx="1156.496896050881" cy="458.9185190102288" r="70.3" fill="none" stroke="#17191A" stroke-width="1.6"/><circle cx="1156.496896050881" cy="458.9185190102288" r="18.1" fill="none" stroke="#17191A" stroke-width="2.4"/><line x1="1176.4" y1="458.9" x2="1224.9" y2="458.9" stroke="#17191A" stroke-width="1.8"/><circle cx="1192.6" cy="485.2" r="5.2" fill="none" stroke="#17191A" stroke-width="1.6"/><line x1="1162.7" y1="477.9" x2="1177.6" y2="524.0" stroke="#17191A" stroke-width="1.8"/><circle cx="1142.7" cy="501.4" r="5.2" fill="none" stroke="#17191A" stroke-width="1.6"/><line x1="1140.4" y1="470.6" x2="1101.2" y2="499.1" stroke="#17191A" stroke-width="1.8"/><circle cx="1111.8" cy="458.9" r="5.2" fill="none" stroke="#17191A" stroke-width="1.6"/><line x1="1140.4" y1="447.2" x2="1101.2" y2="418.7" stroke="#17191A" stroke-width="1.8"/><circle cx="1142.7" cy="416.5" r="5.2" fill="none" stroke="#17191A" stroke-width="1.6"/><line x1="1162.7" y1="439.9" x2="1177.6" y2="393.9" stroke="#17191A" stroke-width="1.8"/><circle cx="1192.6" cy="432.7" r="5.2" fill="none" stroke="#17191A" stroke-width="1.6"/></g>
  <svg x="96" y="92" width="300" height="165.6" viewBox="141.0 217.0 2250.0 1242.0"><g fill="#17191A"><path d="M 2253.355469 938.214844 L 2253.355469 850.933594 L 2285.117188 894.574219 Z M 2253.355469 938.214844 "/><path d="M 1229.054688 288.808594 L 1268.738281 259.976562 C 1269.550781 259.496094 1269.894531 258.929688 1270.023438 258.058594 L 1270 239.054688 L 1226.367188 270.847656 L 1182.738281 239.027344 L 1182.742188 258.0625 C 1182.867188 258.683594 1182.957031 259.125 1183.511719 259.605469 L 1222.265625 287.761719 L 1226.515625 290.660156 C 1227.460938 290.167969 1228.121094 289.488281 1229.054688 288.808594 "/><path d="M 1230.519531 321.839844 L 1269.09375 293.839844 C 1269.691406 293.289062 1269.914062 292.84375 1270.023438 292.117188 L 1270 273.152344 L 1226.371094 304.96875 L 1182.738281 273.136719 L 1182.746094 292.121094 C 1182.847656 292.839844 1183.070312 293.292969 1183.667969 293.835938 L 1222.238281 321.851562 C 1223.648438 322.875 1224.8125 323.878906 1226.378906 324.492188 C 1227.964844 323.890625 1229.105469 322.863281 1230.519531 321.839844 "/><path d="M 1485.863281 1314.804688 C 1485.746094 1355.753906 1465.097656 1392.832031 1436.066406 1418.675781 C 1391.121094 1458.679688 1327.261719 1468.152344 1271.933594 1443.207031 C 1220.8125 1420.160156 1182.886719 1368.019531 1182.808594 1308.054688 L 1182.511719 680.792969 L 907.785156 680.824219 L 907.6875 906.96875 C 907.675781 931.4375 887.238281 949.160156 864.957031 949.410156 C 844.015625 949.644531 821.246094 933.765625 821.226562 909.175781 L 820.90625 498.355469 C 820.882812 466.144531 795.175781 431.113281 761.410156 431.082031 L 295.375 430.652344 C 268.558594 430.628906 246.667969 449.464844 234.855469 470.894531 C 219.761719 498.273438 220.410156 528.429688 235.566406 555.191406 C 248.398438 577.851562 270.984375 593.582031 298.246094 593.671875 L 556.390625 594.515625 C 603.332031 594.671875 645.105469 618.808594 675.160156 654.035156 C 732.425781 721.148438 731.871094 823.453125 674.078125 889.625 C 641.582031 926.828125 598.144531 949.109375 548.578125 949.085938 L 186.910156 948.90625 C 163.792969 948.894531 149.5 925.074219 149.789062 905.847656 C 150.089844 885.921875 165.027344 863.90625 188.527344 863.933594 L 530.773438 864.335938 C 587.136719 864.402344 631.929688 829.136719 631.035156 768.941406 C 630.433594 728.523438 601.199219 682.40625 556.277344 682.101562 L 294.777344 680.320312 C 229.769531 679.875 173.636719 637.6875 149.644531 577.574219 C 126.011719 518.359375 136.679688 450.183594 177.445312 401.371094 C 206.726562 366.3125 248.378906 343.664062 295.082031 343.644531 L 766.84375 343.417969 C 843.859375 351.199219 900.363281 411.59375 907.46875 488.253906 L 907.820312 593.929688 L 1182.449219 593.980469 L 1182.695312 353.535156 C 1182.746094 328.804688 1203.839844 384.871094 1226.289062 385.695312 C 1249.644531 386.558594 1269.679688 327.007812 1269.65625 352.972656 L 1269.195312 1297.730469 C 1269.15625 1335.246094 1289.878906 1365.085938 1327.722656 1369.609375 C 1360.996094 1373.585938 1399.316406 1349.089844 1399.417969 1310.597656 L 1403.160156 1001.078125 C 1403.367188 924.070312 1471.757812 851.273438 1549.570312 851.265625 L 2253.246094 850.488281 C 2267.328125 878.445312 2253.804688 875.554688 2254.375 894.128906 C 2255.003906 914.636719 2261.308594 900.574219 2253.246094 937.769531 L 2033.964844 938.003906 L 2033.839844 1416.953125 C 2033.832031 1441.386719 2010.621094 1457.589844 1989.675781 1456.957031 C 1967.929688 1456.300781 1947.199219 1438.933594 1947.195312 1414.449219 L 1947.164062 937.945312 L 1547.496094 938.808594 C 1515.339844 938.867188 1493.960938 971.914062 1489.203125 999.210938 L 1489.085938 1101.617188 L 1785.132812 1101.546875 C 1810.410156 1101.539062 1828.921875 1117.578125 1830.9375 1142.214844 C 1832.640625 1163.03125 1817.367188 1187.980469 1792.179688 1188.011719 L 1489.136719 1188.367188 Z M 1485.863281 1314.804688 "/><path d="M 1231.898438 391.125 L 1238.375 386.402344 L 1268.441406 364.613281 C 1269.335938 364.132812 1269.847656 363.480469 1270.039062 362.519531 L 1270.015625 343.464844 L 1226.378906 375.21875 L 1182.757812 343.433594 L 1182.761719 362.527344 C 1182.9375 363.535156 1183.59375 364.257812 1184.496094 364.683594 L 1192.671875 370.621094 L 1220.945312 391.15625 C 1222.792969 392.496094 1224.421875 393.824219 1226.429688 394.679688 C 1228.464844 393.773438 1230.082031 392.449219 1231.898438 391.125 "/><path d="M 2319.519531 891.902344 L 2289.414062 852.214844 C 2288.9375 851.402344 2288.371094 851.058594 2287.5 850.929688 L 2268.496094 850.957031 L 2301.558594 894.589844 L 2268.464844 938.214844 L 2287.503906 938.210938 C 2288.125 938.085938 2288.566406 937.996094 2289.046875 937.445312 L 2318.472656 898.691406 L 2321.371094 894.4375 C 2320.878906 893.492188 2320.195312 892.835938 2319.519531 891.902344 "/><path d="M 2352.546875 890.4375 L 2324.550781 851.859375 C 2323.996094 851.261719 2323.554688 851.039062 2322.828125 850.929688 L 2303.863281 850.953125 L 2335.679688 894.585938 L 2303.847656 938.214844 L 2322.832031 938.210938 C 2323.550781 938.109375 2324 937.886719 2324.546875 937.285156 L 2352.5625 898.71875 C 2353.585938 897.304688 2354.589844 896.140625 2355.199219 894.578125 C 2354.601562 892.988281 2353.574219 891.851562 2352.546875 890.4375 "/><path d="M 2388.09375 890.4375 L 2360.09375 851.859375 C 2359.542969 851.261719 2359.097656 851.039062 2358.371094 850.929688 L 2339.40625 850.953125 L 2371.222656 894.585938 L 2339.390625 938.214844 L 2358.375 938.210938 C 2359.09375 938.109375 2359.546875 937.886719 2360.089844 937.285156 L 2388.105469 898.71875 C 2389.128906 897.304688 2390.132812 896.140625 2390.746094 894.578125 C 2390.144531 892.988281 2389.121094 891.851562 2388.09375 890.4375 "/><path d="M -0.00174375 0.00119375 L 38.576381 27.997288 C 39.174037 28.551975 39.396694 28.997288 39.506069 29.72385 L 39.482631 48.688694 L -4.150181 16.868381 L -47.779088 48.700413 L -47.771275 29.716038 C -47.673619 28.997288 -47.447056 28.548069 -46.8494 28.001194 L -8.279088 -0.010525 C -6.868931 -1.037869 -5.704869 -2.041775 -4.138463 -2.65115 C -2.552525 -2.053494 -1.415806 -1.02615 -0.00174375 0.00119375 Z M -0.00174375 0.00119375 "/></g></svg>
  <rect x="96" y="300" width="72" height="4" fill="#3C5A6E"/>
  <text x="96" y="372" font-family="Hiragino Kaku Gothic ProN, sans-serif"
        font-size="46" font-weight="600" fill="#17191A">いまのやり方を、次のかたちへ。</text>
  <text x="96" y="430" font-family="Hiragino Kaku Gothic ProN, sans-serif"
        font-size="27" fill="#3D4144">会社の土台づくりから、AIの導入・自動化、サイト制作まで。</text>
  <text x="96" y="546" font-family="Menlo, monospace" font-size="21"
        letter-spacing="3.4" fill="#3C5A6E">SHIFT GK  /  TOKYO, JAPAN</text>
  </g>
</svg>
